<?xml version="1.0" encoding="iso-8859-1"?>
<!-- Generator: Adobe Illustrator 19.0.0, SVG Export Plug-In . SVG Version: 6.00 Build 0)  -->
<svg xmlns="http://www.w3.org/2000/svg" xmlns:xlink="http://www.w3.org/1999/xlink" version="1.1" id="Capa_1" x="0px" y="0px" viewBox="0 0 512 512" style="enable-background:new 0 0 512 512;" xml:space="preserve">
<path style="fill:#FF5064;" d="M223.936,504.5H31.549c-13.281,0-24.048-10.767-24.048-24.048V288.065  c0-13.282,10.767-24.048,24.048-24.048h192.387c13.282,0,24.048,10.767,24.048,24.048v192.387  C247.984,493.733,237.217,504.5,223.936,504.5z"/>
<path style="fill:#D23C53;" d="M31.549,344.177v-80.161c-13.282,0-24.048,10.767-24.048,24.048v192.387  c0,13.282,10.767,24.048,24.048,24.048h192.387c13.282,0,24.048-10.767,24.048-24.048h-80.161  C92.561,480.452,31.549,419.44,31.549,344.177z"/>
<g>
	<path style="fill:#E4EAF8;" d="M143.775,384.258c-0.124,8.854-7.402,16.032-16.256,16.032s-15.932-7.178-15.808-16.032   s7.402-16.032,16.256-16.032S143.898,375.404,143.775,384.258z"/>
	<path style="fill:#E4EAF8;" d="M87.662,328.145c-0.124,8.854-7.402,16.032-16.256,16.032S55.474,337,55.598,328.145   S63,312.113,71.854,312.113S87.786,319.291,87.662,328.145z"/>
	<path style="fill:#E4EAF8;" d="M199.887,328.145c-0.124,8.854-7.402,16.032-16.256,16.032s-15.932-7.178-15.808-16.032   s7.402-16.032,16.256-16.032S200.012,319.291,199.887,328.145z"/>
	<path style="fill:#E4EAF8;" d="M87.662,440.371c-0.124,8.854-7.402,16.032-16.256,16.032s-15.932-7.178-15.808-16.032   S63,424.339,71.854,424.339S87.786,431.517,87.662,440.371z"/>
	<path style="fill:#E4EAF8;" d="M199.887,440.371c-0.124,8.854-7.402,16.032-16.256,16.032s-15.932-7.178-15.808-16.032   s7.402-16.032,16.256-16.032S200.012,431.517,199.887,440.371z"/>
</g>
<path style="fill:#FF5064;" d="M480.452,247.984H288.065c-13.282,0-24.048-10.767-24.048-24.048V31.548  c0-13.282,10.767-24.048,24.048-24.048h192.387c13.282,0,24.048,10.767,24.048,24.048v192.387  C504.5,237.217,493.733,247.984,480.452,247.984z"/>
<path style="fill:#D23C53;" d="M288.065,87.661V7.5c-13.282,0-24.048,10.767-24.048,24.048v192.387  c0,13.282,10.767,24.048,24.048,24.048h192.387c13.282,0,24.048-10.767,24.048-24.048h-80.161  C349.077,223.935,288.065,162.923,288.065,87.661z"/>
<g>
	<path style="fill:#E4EAF8;" d="M400.29,183.855c-0.124,8.854-7.402,16.032-16.256,16.032s-15.932-7.178-15.808-16.032   s7.402-16.032,16.256-16.032S400.414,175,400.29,183.855z"/>
	<path style="fill:#E4EAF8;" d="M400.29,71.629c-0.124,8.854-7.402,16.032-16.256,16.032s-15.932-7.178-15.808-16.032   s7.402-16.032,16.256-16.032S400.414,62.775,400.29,71.629z"/>
</g>
<path d="M223.937,256.516H31.549c-17.396,0-31.548,14.152-31.548,31.548v192.387C0.001,497.848,14.153,512,31.549,512h192.387  c17.396,0,31.548-14.152,31.548-31.549V288.064C255.484,270.668,241.333,256.516,223.937,256.516z M240.484,480.451  c0,9.125-7.423,16.549-16.548,16.549H31.549c-9.125,0-16.548-7.424-16.548-16.549V288.064c0-9.125,7.423-16.548,16.548-16.548  h192.387c9.125,0,16.548,7.423,16.548,16.548L240.484,480.451L240.484,480.451z"/>
<path d="M71.63,304.613c-12.976,0-23.532,10.557-23.532,23.532s10.557,23.532,23.532,23.532s23.532-10.557,23.532-23.532  S84.604,304.613,71.63,304.613z M71.63,336.677c-4.705,0-8.532-3.828-8.532-8.532s3.828-8.532,8.532-8.532s8.532,3.828,8.532,8.532  S76.334,336.677,71.63,336.677z"/>
<path d="M183.855,351.677c8.37,0,16.177-4.503,20.374-11.751c2.076-3.584,0.853-8.173-2.732-10.249  c-3.584-2.076-8.174-0.853-10.249,2.732c-1.524,2.633-4.357,4.268-7.394,4.268c-4.705,0-8.532-3.828-8.532-8.532  s3.828-8.532,8.532-8.532c4.142,0,7.5-3.358,7.5-7.5s-3.358-7.5-7.5-7.5c-12.976,0-23.532,10.557-23.532,23.532  S170.88,351.677,183.855,351.677z"/>
<path d="M89.273,441.896c-3.584-2.075-8.173-0.849-10.248,2.736c-1.524,2.635-4.358,4.271-7.396,4.271  c-4.705,0-8.532-3.828-8.532-8.532s3.828-8.532,8.532-8.532c4.142,0,7.5-3.358,7.5-7.5s-3.358-7.5-7.5-7.5  c-12.976,0-23.532,10.557-23.532,23.532s10.557,23.532,23.532,23.532c8.374,0,16.182-4.506,20.379-11.76  C94.083,448.558,92.858,443.97,89.273,441.896z"/>
<path d="M127.743,360.726c-12.976,0-23.532,10.557-23.532,23.533c0,12.976,10.557,23.532,23.532,23.532  c12.976,0,23.533-10.557,23.533-23.532C151.275,371.282,140.719,360.726,127.743,360.726z M127.743,392.791  c-4.705,0-8.532-3.828-8.532-8.532c0-4.705,3.828-8.533,8.532-8.533c4.705,0,8.533,3.828,8.533,8.533  C136.275,388.963,132.448,392.791,127.743,392.791z"/>
<path d="M183.855,416.839c-12.976,0-23.532,10.557-23.532,23.532s10.557,23.532,23.532,23.532s23.532-10.557,23.532-23.532  S196.831,416.839,183.855,416.839z M183.855,448.903c-4.705,0-8.532-3.828-8.532-8.532s3.828-8.532,8.532-8.532  s8.532,3.828,8.532,8.532S188.561,448.903,183.855,448.903z"/>
<path d="M480.452,0H288.064c-17.396,0-31.548,14.152-31.548,31.548v192.387c0,17.396,14.152,31.548,31.548,31.548h192.387  c17.396,0,31.548-14.152,31.548-31.548V31.548C512,14.152,497.848,0,480.452,0z M497,223.936c0,9.125-7.423,16.548-16.548,16.548  H288.064c-9.125,0-16.548-7.423-16.548-16.548V31.548c0-9.125,7.423-16.548,16.548-16.548h192.387C489.577,15,497,22.423,497,31.548  V223.936z"/>
<path d="M384.258,48.097c-12.976,0-23.533,10.557-23.533,23.532s10.557,23.532,23.533,23.532c12.976,0,23.532-10.557,23.532-23.532  S397.234,48.097,384.258,48.097z M384.258,80.161c-4.705,0-8.533-3.828-8.533-8.532s3.828-8.532,8.533-8.532  s8.532,3.828,8.532,8.532S388.964,80.161,384.258,80.161z"/>
<path d="M401.9,185.379c-3.584-2.073-8.173-0.849-10.248,2.737c-1.524,2.634-4.357,4.271-7.395,4.271  c-4.705,0-8.533-3.828-8.533-8.532s3.828-8.532,8.533-8.532c4.142,0,7.5-3.358,7.5-7.5s-3.358-7.5-7.5-7.5  c-12.976,0-23.533,10.557-23.533,23.532s10.557,23.532,23.533,23.532c8.374,0,16.183-4.506,20.379-11.76  C406.711,192.042,405.486,187.454,401.9,185.379z"/>
<g>
</g>
<g>
</g>
<g>
</g>
<g>
</g>
<g>
</g>
<g>
</g>
<g>
</g>
<g>
</g>
<g>
</g>
<g>
</g>
<g>
</g>
<g>
</g>
<g>
</g>
<g>
</g>
<g>
</g>
</svg>
